<svg width="4096" height="2048" xmlns="http://www.w3.org/2000/svg">
    <rect width="4096" height="2048" fill="#f1f5f9" />
    <rect y="800" width="4096" height="400" fill="#e2e8f0" />
    <line x1="0" y1="1024" x2="4096" y2="1024" stroke="#94a3b8" stroke-width="2" />
    <text x="2048" y="1000" font-family="Arial" font-size="100" text-anchor="middle" fill="#64748b">VR360
        Placeholder</text>
    <text x="2048" y="1150" font-family="Arial" font-size="60" text-anchor="middle" fill="#94a3b8">Upload
        real panorama to public/vr360/scenes/</text>

    <!-- Grid lines -->
    <path d="M0 0 L4096 0 M0 512 L4096 512 M0 1536 L4096 1536 M0 2048 L4096 2048" stroke="#cbd5e1"
        stroke-width="2" />
    <path
        d="M0 0 L0 2048 M512 0 L512 2048 M1024 0 L1024 2048 M1536 0 L1536 2048 M2048 0 L2048 2048 M2560 0 L2560 2048 M3072 0 L3072 2048 M3584 0 L3584 2048 M4096 0 L4096 2048"
        stroke="#cbd5e1" stroke-width="2" />
</svg>